<svg width="48" height="48" viewBox="0 0 48 48" fill="none" xmlns="http://www.w3.org/2000/svg">
  <defs>
    <linearGradient id="grad1" x1="0%" y1="0%" x2="100%" y2="100%">
      <stop offset="0%" style="stop-color:#8B5CF6;stop-opacity:1" />
      <stop offset="50%" style="stop-color:#6366F1;stop-opacity:1" />
      <stop offset="100%" style="stop-color:#3B82F6;stop-opacity:1" />
    </linearGradient>
    <linearGradient id="grad2" x1="100%" y1="0%" x2="0%" y2="100%">
      <stop offset="0%" style="stop-color:#EC4899;stop-opacity:1" />
      <stop offset="100%" style="stop-color:#8B5CF6;stop-opacity:1" />
    </linearGradient>
    <filter id="glow">
      <feGaussianBlur stdDeviation="2" result="coloredBlur"/>
      <feMerge>
        <feMergeNode in="coloredBlur"/>
        <feMergeNode in="SourceGraphic"/>
      </feMerge>
    </filter>
  </defs>

  <!-- Rakieta/Wykres wzrostowy -->
  <path d="M24 4L28 12L36 14L28 16L24 24L20 16L12 14L20 12L24 4Z" fill="url(#grad1)" filter="url(#glow)"/>

  <!-- Narzędzia - klucz -->
  <path d="M8 32L12 28L14 30L18 26L20 28L16 32L14 30L12 32L8 32Z" fill="url(#grad2)" opacity="0.9"/>

  <!-- Wykres rosnący -->
  <path d="M26 30L30 26L34 28L38 22L40 24L34 32L30 30L26 34L26 30Z" fill="url(#grad1)" opacity="0.8"/>

  <!-- Połączenia -->
  <circle cx="14" cy="30" r="2" fill="#EC4899" opacity="0.8"/>
  <circle cx="24" cy="14" r="2.5" fill="#3B82F6" opacity="0.9"/>
  <circle cx="34" cy="28" r="2" fill="#6366F1" opacity="0.8"/>

  <!-- Akcent dolny -->
  <path d="M6 40 Q24 36 42 40" stroke="url(#grad1)" stroke-width="2" fill="none" opacity="0.6"/>
</svg>
